<svg fill="none" height="100" viewBox="0 0 100 100" width="100" xmlns="http://www.w3.org/2000/svg" xmlns:xlink="http://www.w3.org/1999/xlink"><clipPath id="a"><path d="m0 0h100v100h-100z"/></clipPath><g clip-path="url(#a)"><path d="m50 0c9.8891 0 19.5561 2.93245 27.7785 8.42652 8.2225 5.49408 14.6311 13.30298 18.4155 22.43928s4.775 19.1897 2.8453 28.8887c-1.9293 9.6991-6.6913 18.6082-13.684 25.6008-6.9926 6.9927-15.9017 11.7547-25.6008 13.684-9.699 1.9297-19.7524.9391-28.8887-2.8453s-16.9452-10.193-22.43928-18.4155c-5.49407-8.2224-8.42652-17.8894-8.42652-27.7785 0-13.2608 5.26784-25.9785 14.6447-35.3553 9.3768-9.37686 22.0945-14.6447 35.3553-14.6447z" fill="#172852"/><path d="m39.7468 21.43c6.0674-2.2695 12.8966-2.2746 19.0781-.4093 8.0468 2.4974 14.8397 8.5701 18.389 16.192.9793 2.1711 1.9171 4.4354 2.0104 6.8499-4.5234-2.6218-9.4821-4.3213-14.4511-5.8706-7.9484-2.8653-16.2698-4.855-23.7933-8.7929-1.7513-1.0467-3.9845-2.1192-4.4612-4.3006-.1917-1.8861 1.8032-2.9379 3.2281-3.6685z" fill="#ffd83d"/><path d="m21.4292 39.7726c1.7566-4.767 4.6375-9.192 8.5495-12.4718.9948 8.1815 4.4767 16.0884 10.2282 22.0367 6.8965 7.166 16.7205 11.565 26.7156 11.3992 3.9689.1244 7.8499-.7927 11.7204-1.5337-3.8084 13.762-18.8916 22.8969-32.866 20.7-8.4354-1.0778-16.2231-6.0727-20.9227-13.1247-5.3006-7.7929-6.6375-18.1403-3.425-27.0057z" fill="#ffd83d"/><path d="m64.7715 38.1924c4.969 1.5492 9.9277 3.2488 14.4511 5.8706l.3057.1606c.4197 3.1555.7254 6.3732.1658 9.5339-2.2747-.9638-4.1193-2.6581-6.0468-4.1555-3.7099-3.0882-7.4975-6.6219-8.8758-11.4096z" fill="#ff6f03"/></g></svg>