<svg fill="none" height="100" viewBox="0 0 100 100" width="100" xmlns="http://www.w3.org/2000/svg"><path d="m81.096 13.722-.01-.01.014-.008a44.174 44.174 0 0 0 -28.765-10.574 44.167 44.167 0 0 0 -18.01 3.825c-3.705 1.565-6.715 3.635-9.195 6.885-12.74 16.83 29.96 29.06 52.79 29.104 10.492 7.528 13.446-21.236 3.177-29.222z" fill="#0d3ca4"/><path d="m36.893 14.063c-5.863 8.816-25.403 15.027-28.615 14.057l-.019-.04c.132-.268.268-.532.4-.795a46.672 46.672 0 0 1 8.48-11.58 47.21 47.21 0 0 1 9.185-7.151c2.737-1.584 5.536-1.688 6.458-1.72 8.708.177 4.16 7.16 4.11 7.229zm-4.806 62.303c.418 2.772-.009 13.713-.58 14.634-.486.032-1.503.095-4.448-1.557a46.827 46.827 0 0 1 -9.92-7.573 46.952 46.952 0 0 1 -8.48-11.58 46.524 46.524 0 0 1 -5.223-21.5c0-2.581.208-5.118.612-7.587a46.511 46.511 0 0 1 2.265-8.598c3.376 4.483 7.278 8.544 10.595 13.073 3.159 4.315 7.506 11.344 8.386 12.85 5.5 9.316 6.376 15.074 6.793 17.838zm-3.312-38.857c-2.006-15.31 29.055-25.979 42.705-26.382 1.638.018 6.616.077 9.525 2.436 53.495 50.937-46.957 64.24-52.23 23.947z" fill="#5494f8"/><path d="m20.457 92.35c0 1.825 1.27 3.304 2.845 3.313 37.496.259 73.694-1.46 73.694-7.083 0-17.007-76.539 3.77-76.539 3.77z" fill="#760101"/><path d="m23.32 44.187a2.863 2.863 0 0 0 -2.863 2.863v45.3c0 1.574 1.27 2.85 2.845 2.858 37.496-.276 73.74-12.687 73.694-6.63v-51.024c.045-6.053-36.189 6.353-73.676 6.634z" fill="#de3030"/><path d="m84 80c8.8-1.6 12.333-.333 13 .5v3.5c-1.6-1.6-9.333-.667-13 0-20.5 4.5-47.833 6.333-63.5 7.5v-4c11.5 0 52.5-5.5 63.5-7.5zm0-8.232c8.8-1.6 12.333-.333 13 .5v3.5c-1.6-1.6-9.333-.667-13 0-20.5 4.5-47.833 6.333-63.5 7.5v-4c14.5 1 52.5-5.5 63.5-7.5zm0-8.232c8.8-1.6 12.333-.334 13 .5v3.5c-1.6-1.6-9.333-.668-13 0-20.5 4.5-47.833 6.332-63.5 7.5v-4c14.5 1 52.5-5.5 63.5-7.5zm0-8.233c8.8-1.6 12.333-.333 13 .5v3.5c-1.6-1.6-9.333-.667-13 0-20.5 4.5-47.833 6.333-63.5 7.5v-4c14.5 1 52.5-5.5 63.5-7.5zm0-8.233c8.8-1.6 12.333-.333 13 .5v3.5c-1.6-1.6-9.333-.666-13 0-20.5 4.5-47.833 6.334-63.5 7.5v-4c14.5 1 52.5-5.5 63.5-7.5zm0-8.232c8.8-1.6 12.333-.333 13 .5v3.5c-1.6-1.6-9.333-.667-13 0-20.5 4.5-47.833 6.333-63.5 7.5v-4c14.5 1 52.5-5.5 63.5-7.5z" fill="#fff"/><path d="m28.593 71.54a204.112 204.112 0 0 0 7.066-.376 251.745 251.745 0 0 0 6.706-.572c1.13-.109 2.27-.222 3.445-.35 1.17-.126 2.368-.258 3.612-.412 1.243-.15 2.536-.313 3.889-.49 1.352-.173 2.763-.372 4.238-.59v-27.53c-10.532 1.556-22.317 2.872-34.229 2.958a2.863 2.863 0 0 0 -2.863 2.864v24.653c1.484 0 2.895-.018 4.247-.05 1.353-.018 2.646-.06 3.89-.105z" fill="#1a3ab9"/><path d="m23.053 46.48 1.221 1.863-2.223.126 1.002-1.988zm5.135-.29 1.22 1.862-2.222.126zm5.135-.292 1.22 1.862-2.223.126zm5.135-.291 1.22 1.862-2.223.126zm5.134-.292 1.221 1.862-2.223.126zm5.135-.291 1.221 1.862-2.223.126zm5.133-.292 1.22 1.862-2.222.126zm-28.047 5.026 1.22 1.862-2.222.127zm5.135-.291 1.22 1.863-2.223.126zm5.135-.292 1.22 1.863-2.223.126zm5.134-.291 1.221 1.862-2.223.127zm5.135-.292 1.221 1.863-2.223.126zm5.135-.291 1.22 1.862-2.223.127zm-28.047 5.026 1.22 1.862-2.223.126zm5.135-.292 1.22 1.863-2.223.126zm5.135-.292 1.22 1.863-2.223.126 1.002-1.989zm5.134-.29 1.221 1.862-2.223.126 1.002-1.989zm5.135-.293 1.22 1.863-2.222.126zm5.135-.29 1.22 1.862-2.223.126zm5.132-.292 1.221 1.862-2.223.126 1.002-1.989zm-28.042 5.026 1.22 1.862-2.223.127 1.003-1.99zm5.134-.291 1.221 1.862-2.223.126zm5.135-.293 1.221 1.863-2.223.127zm5.135-.29 1.22 1.862-2.223.126zm5.135-.292 1.22 1.862-2.223.126zm5.134-.291 1.221 1.862-2.223.126zm-28.048 5.026 1.22 1.863-2.223.126zm5.134-.291 1.221 1.863-2.223.126zm5.135-.292 1.221 1.863-2.223.126zm5.135-.29 1.22 1.862-2.223.126 1.003-1.989zm5.135-.293 1.22 1.863-2.223.126zm5.134-.291 1.221 1.862-2.223.127zm5.133-.292 1.221 1.863-2.223.126zm-30.655 9.041 1.222 1.863-2.223.126 1.002-1.989zm5.136-.291 1.22 1.863-2.223.126zm5.134-.292 1.221 1.863-2.223.126zm5.135-.291 1.221 1.863-2.223.126zm5.135-.291 1.221 1.862-2.223.126 1.002-1.989zm5.135-.292 1.22 1.863-2.223.126zm5.133-.292 1.22 1.863-2.223.126zm-28.196-2.266 1.221 1.863-2.223.126 1.002-1.988zm5.135-.29 1.221 1.862-2.223.126zm5.135-.292 1.22 1.862-2.223.126zm5.134-.291 1.221 1.862-2.223.126zm5.135-.292 1.221 1.862-2.223.126zm5.135-.292 1.221 1.863-2.223.126z" fill="#fff"/></svg>